Love for All and Sharing is the first step to solving all the problems of humanity.

Websites I want to share.

 
http://www.shareintl.org/

 
http://www.lightmiddleway.com


Thank you very much

No credit for me...credit to EVERYONE for sharing

 
http://thepiratebay.org/user/raymondhome/

STORY
After being betrayed by the organization who hired him, an ex-Federale launches a brutal rampage of revenge against his former boss.

Language: English
Source:DVD9
Subtitles: Romana/Engleza Where needed

General
Complete name :Machete.R5.LINE.XviD.Ac3.Feel-Free
Format : AVI
Format/Info : Audio Video Interleave
File size : 1.37 GiB
Duration : 1h 39mn
Overall bit rate : 1 969 Kbps
Video #0
Muxing mode : Packed bitstream
Codec ID : XVID
Codec ID/Hint : XviD
Duration : 1h 39mn
Bit rate : 1 511 Kbps
Width : 652 pixels
Height : 352 pixels
Display aspect ratio : 1.852
Frame rate : 25.000 fps
Resolution : 24 bits
Colorimetry : 4:2:0
Scan type : Progressive
Bits/(Pixel*Frame) : 0.263
Stream size : 1.05 GiB (77%)
Writing library : XviD 1.2.1 (UTC 2008-12-04)
Audio #1
ID : 1
Format : AC-3
Format/Info : Audio Coding 3
Codec ID : 2000
Duration : 1h 39mn
Bit rate mode : Constant
Bit rate : 448 Kbps
Channel(s) : 6 channels
Channel positions : Front: L C R, Surround: L R, LFE
Sampling rate : 48.0 KHz
Stream size : 319 MiB (23%)
Alignment : Split accross interleaves
Interleave, duration : 40 ms (1.00 video frame)
Interleave, preload duration : 500 ms

credit Feel-Free & pitic & to all the people who made it possible for us to share this...especially EVERYONE involve in the production of the movie...IF YOU LIKE IT...BUY IT :)

*****help what we can with others in need...the world is ONE big family*****

SCREENSHOTS
 
http://www.starshare.ro/bitbucket/Machete.R5.LINE.XviD.Ac3.Feel-Free.avi_snapshot_00.01.14_%5B2010.09.22_19.53.41%5D.jpg
 
http://www.starshare.ro/bitbucket/Machete.R5.LINE.XviD.Ac3.Feel-Free.avi_snapshot_00.44.58_%5B2010.09.22_19.54.43%5D.jpg
 
http://www.starshare.ro/bitbucket/Machete.R5.LINE.XviD.Ac3.Feel-Free.avi_snapshot_00.47.08_%5B2010.09.22_19.53.29%5D.jpg

DON'T THANK US...HELP SOMEONE IN NEED :)

MAY YOU & YOUR LOVED ONES ALWAYS BE BLESSED WITH LIGHT, LOVE, JOY, PEACE, GOOD HEALTH & ABUNDANCE :)
 
http://www.imdb.com/title/tt0985694/